<svg version="1.1" xmlns="http://www.w3.org/2000/svg" style="display: block;" viewBox="0 0 2048 2048" width="1024" height="1024">
<path transform="translate(0,0)" fill="rgb(255,255,255)" d="M 0 0 L 2048 0 L 2048 2048 L 0 2048 L 0 0 z"/>
<path transform="translate(0,0)" fill="rgb(19,28,58)" d="M 1466.5 178.432 C 1485.6 176.677 1506.44 178.334 1525.5 180.204 C 1616.54 189.133 1698.2 225.343 1769.36 282.247 C 1858.7 353.692 1918.88 467.448 1931.38 580.632 C 1943.68 692.005 1921.44 806.964 1861.66 902.497 C 1850.21 920.803 1836.7 938.272 1823.18 955.08 C 1754.06 1040.96 1647.34 1095.62 1538.31 1107.23 C 1434.42 1118.45 1329.79 1094.1 1241.52 1038.16 C 1222.85 1026.26 1205.84 1012.48 1188.65 998.582 C 1195.57 1022.05 1200.02 1046.42 1205.47 1070.28 L 1237.01 1205.91 L 1268.31 1337.91 C 1275.64 1367.81 1287.28 1407.58 1290.57 1437.52 C 1292.04 1450.87 1290.29 1464.74 1283.9 1476.68 C 1277.89 1487.92 1267.72 1497.56 1256.34 1503.27 C 1241.35 1510.79 1224.27 1515.06 1208.27 1519.92 C 1186.87 1526.34 1165.52 1532.91 1144.22 1539.63 C 1050.34 1570.08 956.259 1599.89 861.976 1629.07 C 904.701 1682.53 971.951 1714.53 1039.46 1721.26 C 1053.28 1722.63 1076.1 1720.47 1087.92 1727.95 C 1094.2 1731.92 1099.97 1738.4 1101.31 1745.88 C 1102.63 1753.23 1101.42 1760.6 1096.92 1766.66 C 1087.77 1778.95 1065.59 1784.57 1051.59 1789.92 C 958.267 1825.51 860.09 1846.35 761.457 1860.67 C 716.509 1867.71 671.365 1870.07 625.987 1871.96 C 614.795 1872.43 600.644 1874.67 589.782 1871.88 C 582.316 1869.97 575.759 1865.22 572.144 1858.34 C 566.321 1847.24 569.99 1834.08 578.177 1825.23 C 587.535 1815.11 603.839 1810.53 615.492 1803.24 C 663.164 1773.45 699.184 1728.22 717.546 1675.09 C 704.66 1677.58 692.059 1682.08 679.572 1686.05 L 623.599 1703.95 C 559.568 1725.18 495.221 1745.44 430.579 1764.72 C 406.355 1771.87 381.3 1782.34 356.061 1784.62 C 342.275 1785.87 328.849 1783.16 316.473 1776.97 C 301.71 1769.58 286.151 1754.35 280.919 1738.49 C 270.262 1706.18 263.795 1672.07 255.842 1639.02 L 209.09 1444.99 C 190.51 1369.95 173.866 1294.4 155.128 1219.43 C 145.909 1182.54 137.733 1145.45 128.957 1108.46 C 125.06 1092.04 119.047 1075.31 116.701 1058.64 C 114.647 1044.88 116.959 1030.83 123.31 1018.45 C 129.29 1006.82 138.761 996.91 150.743 991.476 C 175.278 980.349 210.546 971.563 236.987 962.932 L 420.003 903.211 L 1027.23 704.401 C 1024.58 690.808 1024 676 1023.3 662.17 C 1016.93 538.053 1060.8 416.599 1145.02 325.202 C 1157.96 310.894 1172.51 298.169 1187.25 285.763 C 1266.94 218.701 1362.9 183.555 1466.5 178.432 z"/>
<path transform="translate(0,0)" fill="rgb(255,255,255)" d="M 1469.21 194.439 C 1473.04 194.296 1476.88 194.187 1480.72 194.113 C 1599 191.932 1706.36 242.706 1790.21 323.833 C 1874.07 404.969 1916.58 522.479 1918.06 637.754 C 1920.21 762.066 1872.54 882.073 1785.68 971.027 C 1708.58 1050.18 1599.19 1092.58 1489.47 1094.11 C 1375.28 1095.07 1270.24 1050.88 1186.64 974.295 C 1095.57 890.863 1045.03 777.171 1039.77 654.337 C 1035.53 537.998 1077.36 424.684 1156.16 338.991 C 1237.01 250.934 1349.74 198.883 1469.21 194.439 z"/>
<path transform="translate(0,0)" fill="rgb(19,28,58)" d="M 1439.4 351.307 L 1528.43 351.522 C 1542.11 351.548 1555.94 351.061 1569.59 351.685 C 1575.1 351.936 1578.16 351.724 1582.07 355.964 C 1582.7 358.858 1582.26 359.544 1581.25 362.342 C 1576.82 374.577 1570.88 386.511 1565.92 398.576 L 1526.45 495.101 C 1519.37 512.74 1511.9 530.251 1505.83 548.268 C 1524.72 548.322 1600.68 547.163 1613.84 550.923 C 1615.26 552.124 1616.1 552.934 1616.76 554.752 C 1618.01 558.226 1617.18 560.192 1615.56 563.285 C 1604.58 584.161 1589.91 604.215 1577.35 624.262 C 1560.51 651.12 1545.53 678.344 1531.1 706.566 C 1591.69 694.729 1652.7 685.091 1713.35 673.506 C 1723.34 744.475 1734.81 815.227 1747.76 885.716 C 1710.77 891.046 1674.12 898.67 1637.35 905.366 L 1604.78 1009.54 C 1600.8 1021.96 1597.89 1035.59 1592.93 1047.61 C 1592.28 1049.19 1591.55 1051.26 1589.89 1051.95 C 1585.03 1053.97 1578.02 1050.83 1573.25 1049.34 C 1521.23 1030.88 1465.02 1014.83 1412.04 998.551 C 1369.11 984.949 1326.29 971.01 1283.58 956.736 C 1263.36 950.026 1242.71 944.155 1222.74 936.769 C 1216.27 934.375 1206.4 930.347 1204.12 923.112 C 1202.78 918.893 1204.17 912.967 1205.26 908.791 C 1216.49 865.862 1231.85 823.266 1245.37 780.961 C 1249.86 766.9 1254.56 744.263 1260.96 732.241 C 1263.74 727.033 1268.74 725.539 1273.99 723.796 C 1286.98 726.734 1299.9 733.164 1313.13 734.497 C 1323.81 735.574 1336.44 732.149 1347.09 730.353 C 1370.37 726.429 1393.87 721.308 1417.3 718.679 C 1423.98 699.004 1430.79 679.374 1437.73 659.79 C 1418.35 660.819 1339.08 669.571 1326.21 666.575 C 1324.3 666.13 1323.11 664.856 1322.32 663.038 C 1321.1 660.217 1321.17 657.403 1322.02 654.49 C 1331.56 621.886 1347.07 586.438 1359.16 554.201 L 1426.56 371.398 C 1429.36 363.719 1431.52 354.974 1439.4 351.307 z"/>
<path transform="translate(0,0)" fill="rgb(255,255,255)" d="M 1324.27 781.965 C 1346.89 790.242 1369.65 797.388 1392.68 804.435 C 1387.19 828.572 1375.54 867.453 1375.38 891.026 C 1375.29 903.817 1379.89 916.057 1389.08 925.112 C 1401.35 937.21 1423 943.259 1439.94 942.822 C 1457.35 942.475 1473.86 935.011 1485.61 922.168 C 1494.65 912.379 1501.49 899.036 1500.7 885.434 C 1500.17 876.192 1495.52 868.196 1488.68 862.115 C 1480.2 854.567 1468.54 850.175 1457.15 851.315 C 1447.3 852.3 1432.88 859.894 1426.61 867.952 C 1424.22 871.025 1424.25 874.445 1424.8 878.098 C 1427.59 882.96 1433.97 884.12 1439 885.828 C 1428.85 895.571 1420.97 906.974 1412.25 917.942 C 1404.8 914.118 1400.51 910.579 1395.74 903.679 C 1407.51 887.864 1415.15 870.32 1424.22 852.961 C 1430.32 841.277 1437.19 830.146 1444.45 819.152 L 1484.27 834.348 C 1511.59 844.76 1538.98 855.77 1566.94 864.362 C 1566.91 866.928 1566.93 869.522 1567.43 872.048 C 1570.12 885.581 1576 894.565 1587.35 902.185 C 1579.78 926.291 1571.41 950.929 1566.07 975.614 C 1563.2 975.728 1560.35 975.978 1557.51 976.363 C 1544.7 978.155 1538.66 984.387 1531.21 994.16 C 1489.51 977.983 1447.31 964.484 1404.9 950.417 C 1362.91 936.492 1320.97 922.001 1278.47 909.7 C 1280.04 903.578 1281.82 897.557 1283.71 891.524 C 1277.26 884.738 1270.44 878.32 1263.27 872.3 C 1271.6 848.953 1279.03 825.156 1286.37 801.478 C 1293.22 802.343 1300.18 801.659 1306.74 799.477 C 1316.04 796.444 1320.29 790.334 1324.27 781.965 z"/>
<path transform="translate(0,0)" fill="rgb(255,255,255)" d="M 1443.89 367.017 C 1467.16 367.094 1490.74 366.45 1513.96 367.693 C 1508.28 386.824 1498.76 405.962 1490.99 424.403 C 1471.94 469.647 1451.48 514.254 1432.62 559.557 C 1429.52 567.018 1420.57 582.659 1419.7 589.793 C 1419.37 592.495 1419.89 595.345 1421.81 597.384 C 1423.61 599.293 1425.12 600.27 1427.73 600.715 C 1436.41 602.193 1446.72 601.141 1455.54 601.024 C 1480.19 600.698 1505.73 598.97 1530.28 601.012 C 1509.25 646.127 1485.93 690.061 1463.05 734.248 L 1420.52 818.342 C 1413.1 831.567 1406.4 845.234 1399.51 858.75 C 1402.91 809.362 1421.06 753.943 1437.39 707.283 C 1440.34 698.851 1457.06 655.512 1456.47 650.525 C 1456.16 647.971 1455.5 646.37 1453.35 644.825 C 1447.71 640.768 1356.3 650.662 1340.78 651.391 C 1350.03 621.464 1361.52 592.369 1372.34 562.988 C 1385.13 528.223 1397.53 493.361 1410.7 458.73 C 1422.1 428.768 1436.33 398.159 1443.89 367.017 z"/>
<path transform="translate(0,0)" fill="rgb(255,255,255)" d="M 1275.65 740.913 C 1291.28 744.863 1306.56 750.787 1322.02 755.495 C 1347.45 763.242 1373.29 770.213 1398.33 779.157 C 1397.35 782.423 1396.33 785.677 1395.27 788.917 C 1368.82 782.581 1342.65 772.568 1316.82 763.98 C 1313.23 772.536 1309.06 782.911 1299.66 786.432 C 1290.99 789.684 1283.88 786.136 1276.03 782.721 C 1265.03 814.402 1255.59 846.798 1245.09 878.673 C 1252.75 884.676 1259.79 890.83 1265.88 898.468 C 1263.8 904.2 1258.66 911.903 1260.43 918.067 C 1268.35 925.118 1301.27 933.673 1312.69 937.469 L 1455.48 984.727 C 1482.3 993.571 1510.95 1000.68 1536.35 1012.99 C 1540.2 1006.9 1545.03 997.908 1551.06 993.856 C 1558.54 988.835 1566.78 991.822 1574.75 993.697 C 1579.59 983.596 1582.46 972.036 1585.72 961.343 C 1592 940.76 1597.79 919.919 1605.18 899.711 C 1603.13 897.48 1600.91 895.371 1598.79 893.196 C 1585.15 879.184 1581.6 873.167 1581.87 853.201 C 1562.38 845.072 1541.79 838.84 1521.82 831.937 C 1502.74 824.959 1483.48 818.486 1464.54 811.109 L 1469.72 804.141 C 1502.24 816.129 1535.16 826.184 1567.91 837.406 C 1589.8 844.906 1611.33 854.025 1633.6 860.307 C 1627.36 877.83 1623.12 896.129 1617.85 913.969 C 1605.91 954.356 1593.76 995.06 1579.92 1034.82 C 1556.54 1027.27 1532.89 1020.66 1509.47 1013.25 L 1328.39 954.65 C 1291.82 942.808 1255.01 931.579 1218.55 919.407 C 1224.14 895.153 1233.23 870.895 1240.96 847.245 C 1252.3 811.728 1263.86 776.283 1275.65 740.913 z"/>
<path transform="translate(0,0)" fill="rgb(255,255,255)" d="M 1650.68 729.531 C 1652.26 730.687 1653.22 733.25 1654.18 734.952 C 1661.35 747.654 1666.68 751.013 1680.41 755.419 C 1685.64 775.137 1688.31 795.32 1691.3 815.462 C 1686.45 818.156 1682.55 820.667 1678.71 824.732 C 1676.86 834.986 1672.59 844.321 1669.92 854.352 C 1664.69 855.27 1653.88 858.495 1649.04 856.334 C 1649.34 854.349 1649.49 852.437 1649.56 850.431 C 1642.38 843.695 1593.37 828.118 1580.93 823.899 C 1574.74 821.886 1568.52 819.987 1562.27 818.205 C 1562.86 805.596 1563.2 790.731 1557.2 779.266 C 1549.99 765.488 1534.4 760.082 1519.59 760.579 C 1514.67 760.744 1509.2 761.94 1504.43 760.544 L 1504.59 759.054 C 1507.46 755.891 1510.3 754.397 1514.37 753.101 C 1525.71 749.5 1538.69 748.722 1550.41 746.541 C 1583.63 740.363 1617.19 733.963 1650.68 729.531 z"/>
<path transform="translate(0,0)" fill="rgb(255,255,255)" d="M 1696.75 692.367 C 1698.28 692.141 1697.39 692.081 1699.3 693.202 C 1702.62 704.466 1704.6 724.229 1706.63 736.549 C 1714.01 781.347 1718.99 827.404 1729.85 871.496 C 1701.09 876.781 1672.29 881.894 1643.47 886.834 L 1646.26 874.092 C 1659.79 871.321 1674.22 870.331 1687.1 865.123 C 1686.56 860.916 1685.78 856.747 1685.04 852.57 C 1688.34 845.467 1692.18 838.906 1696.88 832.64 C 1700.37 831.224 1703.8 829.609 1707.25 828.073 C 1706.68 811.391 1702.85 793.956 1700.31 777.424 L 1694.26 741.962 C 1690.84 741.697 1687.28 741.529 1683.91 740.923 C 1674.32 739.201 1668.34 731.09 1663.13 723.636 C 1663.17 719.952 1663.77 715.74 1661.19 712.919 C 1647.19 712.831 1631.24 717.148 1617.32 719.4 L 1515.88 736.237 L 1520.29 724.748 C 1546.19 717.875 1573.52 714.115 1599.91 709.508 C 1632.14 703.551 1664.43 697.837 1696.75 692.367 z"/>
<path transform="translate(0,0)" fill="rgb(255,255,255)" d="M 1517.7 776.952 C 1522.51 776.886 1528.08 776.332 1532.62 778.154 C 1539.26 780.821 1543.87 785.774 1546.51 792.383 C 1548.91 798.403 1550.52 806.18 1547.79 812.312 C 1544.94 813.33 1541.71 811.892 1538.9 811.119 C 1527.9 807.318 1516.62 804.949 1505.74 800.607 C 1509.25 792.488 1513.24 784.588 1517.7 776.952 z"/>
<path transform="translate(0,0)" fill="rgb(255,255,255)" d="M 1456.89 865.945 C 1458.87 865.921 1460.78 866.093 1462.72 866.445 C 1469.37 867.644 1476.87 870.638 1480.7 876.523 C 1483.7 881.135 1484.03 886.725 1482.74 891.968 C 1480.16 902.454 1471.85 911.934 1462.8 917.487 C 1455.53 921.952 1443.29 925.742 1434.65 923.545 L 1435.65 921.958 C 1444.16 913.315 1451.26 903.03 1458.48 893.315 C 1462.78 894.256 1467.19 895.732 1471.53 896.29 C 1474.37 896.655 1476.19 896.618 1478.35 894.579 C 1480.4 892.644 1481.16 890.385 1481.22 887.633 C 1477.11 876.128 1458.29 878.124 1450.56 870.699 C 1451.96 868.405 1454.62 867.314 1456.89 865.945 z"/>
<path transform="translate(0,0)" fill="rgb(255,255,255)" d="M 1406.71 737.446 C 1408.44 737.164 1409.88 737.32 1411.62 737.453 C 1413.23 739.398 1413 739.702 1413.03 742.269 C 1406.28 752.956 1384.35 747.494 1373.87 754.16 C 1368.66 753.096 1363.49 751.639 1358.33 750.337 C 1354.21 749.115 1350.24 747.669 1346.23 746.133 C 1366.43 743.422 1386.41 739.532 1406.71 737.446 z"/>
<path transform="translate(0,0)" fill="rgb(19,28,58)" d="M 1800.96 388.006 C 1804.29 387.907 1806.69 387.784 1809.05 390.449 C 1810.84 392.458 1810.87 394.499 1810.77 397.018 C 1810.08 398.55 1809.46 399.354 1808.02 400.259 C 1794.71 408.642 1777.75 414.232 1763.22 420.466 C 1725.15 436.794 1686.68 452.466 1648.28 467.99 C 1645.43 468.097 1642.94 468.332 1640.64 466.357 C 1638.06 464.14 1637.29 461.868 1637.23 458.586 C 1638.31 456.497 1639.36 455.319 1641.43 454.149 C 1657.13 445.271 1684.72 435.664 1702.27 428.357 C 1734.9 414.773 1767.53 399.438 1800.96 388.006 z"/>
<path transform="translate(0,0)" fill="rgb(19,28,58)" d="M 1313.48 505.086 C 1314.94 504.978 1317 504.82 1318.41 505.337 C 1320.84 506.228 1322.62 508.294 1323.4 510.743 C 1324.15 513.074 1323.21 515.143 1322.31 517.246 C 1311.8 524.263 1278.93 530.555 1265.01 534.255 C 1226.87 544.393 1188.57 554.011 1150.51 564.458 C 1148.84 564.623 1147.2 564.53 1145.53 564.49 C 1142.64 562.876 1141.75 561.299 1140.24 558.514 C 1140.17 556.833 1139.8 556.053 1140.8 554.576 C 1143.02 551.296 1146.92 549.668 1150.53 548.383 C 1164.31 543.477 1179.49 541.365 1193.62 537.462 L 1313.48 505.086 z"/>
<path transform="translate(0,0)" fill="rgb(19,28,58)" d="M 1168.72 389.655 C 1180.78 391.08 1193.71 397.249 1205.07 401.54 C 1228.6 410.428 1251.89 419.88 1275.32 429.005 C 1296.77 437.355 1320.51 444.318 1340.84 454.981 C 1342.31 457.142 1342.81 457.824 1342.59 460.585 C 1342.36 463.568 1340.15 465.737 1338.14 467.663 C 1334.95 467.781 1332.47 467.351 1329.45 466.305 C 1314.76 461.216 1170.57 405.596 1166.88 401.991 C 1165.49 400.625 1164.61 398.365 1164.68 396.416 C 1164.8 393.366 1166.7 391.633 1168.72 389.655 z"/>
<path transform="translate(0,0)" fill="rgb(19,28,58)" d="M 1654.61 506.932 C 1657.46 506.9 1660.19 507.337 1662.94 508.06 C 1683.9 513.572 1704.59 520.431 1725.48 526.275 C 1750.14 533.104 1774.75 540.108 1799.32 547.285 C 1808.09 549.866 1820 551.925 1827.79 556.442 C 1830.13 557.8 1830.04 558.937 1830.66 561.388 C 1829.92 564.872 1828.99 566.88 1826.93 569.773 C 1816.94 569.398 1656.84 523.45 1652.78 520.352 C 1650.56 518.652 1650.34 517.026 1649.89 514.418 C 1650.85 510.925 1652.04 509.444 1654.61 506.932 z"/>
<path transform="translate(0,0)" fill="rgb(255,255,255)" d="M 1044.48 791.102 C 1045.66 790.943 1046.52 791.179 1047.68 791.407 C 1050.48 795.035 1064.13 832.664 1068.58 841.985 C 1073.81 852.767 1079.48 863.334 1085.56 873.66 C 1090.81 882.688 1097.46 892.079 1100.65 902.077 C 1106.35 919.957 1108.79 939.811 1113.23 958.144 C 1126.93 1014.54 1140.03 1071.08 1152.52 1127.75 L 1184 1260.48 C 1191.07 1289.34 1199.29 1318.42 1204.54 1347.66 C 1145.08 1365.82 1086.16 1386.43 1026.99 1405.6 L 710.712 1507.78 L 476.881 1584.01 C 442.058 1595.43 407.008 1605.55 372.501 1618 C 357.787 1550.13 340.347 1482.75 324.464 1415.14 C 296.554 1293.54 267.859 1172.11 238.381 1050.87 C 390.622 1002.69 542.471 953.283 693.912 902.644 C 726.089 891.878 758.536 882.113 790.595 870.95 C 785.195 877.783 780.251 885.061 775.149 892.124 C 759.577 914.948 741.617 936.009 725.319 958.288 C 657.318 1051.24 585.965 1141.82 518.549 1235.18 C 545.512 1232.04 572.379 1227.35 599.197 1223.17 C 621.93 1219.62 644.767 1216.62 667.399 1212.46 C 651.717 1245.04 628.533 1280.41 609.902 1312.01 L 496.96 1504.15 C 482.342 1528.91 465.899 1552.7 452.071 1577.91 C 477.557 1559.2 510.21 1523.44 533.301 1500.24 C 568.07 1465.3 603.542 1431.2 637.968 1395.88 L 840.151 1192.13 C 887.534 1144.16 933.626 1094.75 982.444 1048.23 C 952.867 1055.13 922.106 1058.59 892.092 1063.31 L 735.654 1087.27 C 745.648 1071 757.078 1055.5 768.07 1039.9 C 782.387 1019.17 796.904 998.573 811.617 978.117 L 918.134 829.92 C 934.942 823.406 952.577 818.978 969.804 813.683 C 994.643 806.049 1019.42 797.96 1044.48 791.102 z"/>
<path transform="translate(0,0)" fill="rgb(255,255,255)" d="M 1028.37 733.866 L 1030.84 733.991 C 1035.9 739.232 1039.94 766.359 1041.69 774.379 C 1015.06 781.021 989.072 789.721 962.918 797.998 C 918.554 811.802 874.367 826.17 830.368 841.099 L 522.714 941.682 L 301.532 1013.05 C 273.989 1022.1 244.573 1029.04 217.909 1040.19 C 224.763 1060.49 228.929 1081.69 233.841 1102.52 L 259.292 1211.74 C 292 1354.51 325.768 1497.04 360.592 1639.31 C 445.284 1609.75 531.398 1583.51 616.82 1556.05 L 999.346 1432 C 1054.57 1414.59 1109.65 1396.73 1164.59 1378.43 C 1181.02 1372.95 1198.13 1368.38 1214.33 1362.37 C 1217.6 1361.16 1219.94 1360.14 1222.44 1357.69 C 1224.45 1349.59 1133.77 978.865 1122.7 926.963 C 1129.62 936.227 1136.93 945.197 1144.6 953.851 C 1151.17 961.253 1159.29 968.892 1164.47 977.301 C 1170.72 987.452 1180.69 1038.94 1184.31 1054.02 C 1204.42 1133.6 1221.52 1214.03 1240.56 1293.86 C 1247.25 1322.06 1254.12 1350.22 1261.16 1378.33 C 1265.96 1397.53 1271.68 1417.27 1274.5 1436.88 C 1275.73 1445.38 1275.13 1453.93 1272.28 1462.07 C 1268.14 1473.89 1258.93 1483.9 1247.65 1489.3 C 1235.57 1495.08 1221.41 1498.36 1208.58 1502.19 C 1193.01 1506.87 1177.51 1511.76 1162.07 1516.85 L 919.48 1592.83 L 575.71 1701.59 L 466.835 1735.99 C 446.237 1742.45 425.521 1749.48 404.638 1754.93 C 396.266 1757.12 388.177 1756.4 380.124 1753.29 C 367.428 1748.39 356.122 1737.45 350.761 1724.97 C 344.302 1709.93 341.399 1688.63 337.639 1672.37 C 329.26 1636.15 321.09 1599.82 312.131 1563.73 L 222.93 1192.01 L 198.177 1089.32 C 194.398 1073.88 189.935 1058.48 186.685 1042.92 C 185.145 1035.55 184.754 1029.53 187.759 1022.45 C 191.718 1013.11 197.337 1006.76 206.391 1002.49 C 216.802 997.575 227.949 994.838 238.882 991.36 C 255.651 985.897 272.464 980.57 289.32 975.382 L 425.734 930.863 L 830.77 798.131 C 860.774 788.28 890.717 777.728 920.883 768.448 C 956.689 757.432 993.427 747.366 1028.37 733.866 z"/>
<path transform="translate(0,0)" fill="rgb(19,28,58)" d="M 916.865 1502.91 C 927.665 1502.16 937.082 1510.18 938.055 1520.97 C 939.028 1531.75 931.201 1541.33 920.441 1542.53 C 913.278 1543.33 906.245 1540.19 902.054 1534.32 C 897.864 1528.46 897.172 1520.79 900.245 1514.27 C 903.318 1507.75 909.676 1503.41 916.865 1502.91 z"/>
<path transform="translate(0,0)" fill="rgb(19,28,58)" d="M 775.284 1544.8 C 782.051 1542.54 789.512 1544.09 794.815 1548.87 C 800.118 1553.64 802.442 1560.9 800.9 1567.87 C 799.358 1574.83 794.187 1580.43 787.365 1582.52 C 777.001 1585.7 766.011 1579.95 762.705 1569.63 C 759.398 1559.3 765.005 1548.24 775.284 1544.8 z"/>
<path transform="translate(0,0)" fill="rgb(19,28,58)" d="M 841.884 1523.19 C 844.654 1522.96 847.568 1522.61 850.343 1522.81 C 855.79 1523.22 861.681 1527.26 864.864 1531.54 C 868.087 1535.79 869.39 1541.19 868.459 1546.44 C 867.13 1553.61 862.63 1557.83 856.779 1561.66 C 853.855 1562.39 851.051 1563.05 848.02 1562.6 C 842.726 1561.81 837.979 1558.91 834.872 1554.55 C 831.35 1549.59 830.011 1543.4 831.168 1537.42 C 832.504 1530.52 836.202 1526.9 841.884 1523.19 z"/>
<path transform="translate(0,0)" fill="rgb(255,255,255)" d="M 843.443 1635.04 C 845.189 1634.97 845.914 1634.93 847.376 1636.02 C 852.515 1639.86 857.459 1648.19 861.853 1653.09 C 872.389 1664.83 884.171 1675.39 896.99 1684.58 C 938.803 1715.16 984.161 1730.68 1035.19 1737.05 C 1048.41 1738.7 1063.97 1737.51 1076.66 1741.05 C 1080.51 1742.12 1083.17 1745.17 1084.88 1748.68 C 1086.28 1751.54 1086.2 1753.48 1085.28 1756.45 C 1076.35 1764.75 1059.51 1768.99 1048.04 1773.38 C 969.043 1803.64 893.728 1821.34 810.78 1837.06 C 752.957 1846.94 694.602 1853.4 636.019 1856.41 C 623.642 1857.04 608.879 1859.04 596.628 1857 C 592.525 1856.32 587.749 1854.78 585.544 1850.92 C 584.219 1848.61 584.389 1846.28 585.161 1843.83 C 589.16 1831.15 609.924 1824.54 620.556 1818.67 C 633.664 1811.44 645.687 1801.75 656.905 1791.9 C 695.316 1758.17 721.099 1718.65 735.617 1669.74 C 748.115 1664.6 761.701 1661.04 774.571 1656.87 C 797.492 1649.45 820.335 1641.87 843.443 1635.04 z"/>
<path transform="translate(0,0)" fill="rgb(19,28,58)" d="M 814.647 1805.38 C 817.197 1805.07 819.593 1804.73 821.973 1806.08 C 824.215 1807.34 824.892 1809.43 825.663 1811.71 C 825.24 1813.54 825.293 1814.41 823.998 1815.86 C 812.432 1828.81 660.352 1840.56 633.751 1841.38 C 631.324 1841.28 628.544 1841.38 626.444 1839.95 C 624.48 1838.61 622.946 1836.11 622.619 1833.76 C 622.416 1832.3 622.702 1830.78 623.512 1829.56 C 625.363 1826.78 628.052 1826.1 631.173 1825.72 C 654.269 1822.91 677.957 1822.61 701.181 1820.34 C 739.21 1816.62 776.849 1810.84 814.647 1805.38 z"/>
<path transform="translate(0,0)" fill="rgb(19,28,58)" d="M 1038.23 1746.03 C 1038.52 1746.02 1038.82 1745.99 1039.11 1746.01 C 1042.24 1746.18 1045.78 1747.62 1047.68 1750.22 C 1049.28 1752.42 1049.09 1753.56 1048.71 1756.01 C 1037.17 1771.77 892.631 1805.91 866.063 1811.58 C 863.657 1811.82 862.383 1812.06 860.071 1811.11 C 857.749 1810.16 856.375 1807.95 855.636 1805.63 C 854.922 1803.38 854.874 1800.7 856.28 1798.67 C 859.73 1793.69 884.128 1791.01 890.749 1789.49 C 940.801 1778.01 989.631 1762.5 1038.23 1746.03 z"/>
<path transform="translate(0,0)" fill="rgb(19,28,58)" d="M 1604.94 1506.89 C 1612.95 1511.7 1620.45 1519.23 1627.29 1525.61 C 1615.83 1539.02 1604.18 1552.26 1592.35 1565.33 C 1587.71 1564.85 1575.63 1549.4 1571.75 1545.19 C 1582.68 1532.42 1593.1 1518.8 1604.94 1506.89 z"/>
<path transform="translate(0,0)" fill="rgb(19,28,58)" d="M 1672.89 1408.08 C 1681.36 1411.74 1689.76 1416.92 1698.03 1421.14 C 1689.2 1437.26 1678.56 1452.25 1668.2 1467.4 L 1667.69 1467.55 C 1660.88 1466.49 1650.84 1456.55 1645.28 1452.11 C 1655.01 1437.73 1663.2 1422.45 1672.89 1408.08 z"/>
<path transform="translate(0,0)" fill="rgb(19,28,58)" d="M 1758.41 1183.32 C 1766.19 1184.99 1775.63 1186 1782.17 1190.8 C 1785.34 1199.94 1774.41 1233.88 1771.59 1245.05 C 1763.03 1242.25 1754.5 1239.33 1746.02 1236.29 C 1749.55 1218.53 1754.08 1200.9 1758.41 1183.32 z"/>
<path transform="translate(0,0)" fill="rgb(19,28,58)" d="M 753.143 214.038 C 757.473 216.578 760.651 234.805 762.091 240.201 C 745.824 246.004 729.242 251.016 712.912 256.674 C 708.645 248.909 705.448 240.414 701.964 232.269 C 718.569 225.155 735.958 219.562 753.143 214.038 z"/>
<path transform="translate(0,0)" fill="rgb(19,28,58)" d="M 874.968 186.426 L 875.294 186.529 C 878.926 190.297 879.64 206.581 880.56 212.415 L 828.461 222.317 C 825.516 213.955 824.334 203.874 822.495 195.124 C 839.805 192.051 857.457 187.802 874.968 186.426 z"/>
<path transform="translate(0,0)" fill="rgb(19,28,58)" d="M 216.615 693.316 C 224.866 696.706 233.06 700.234 241.194 703.897 C 234.398 719.992 229.25 736.548 223.054 752.865 C 214.305 750.234 205.655 746.268 197.132 742.936 C 202.323 725.913 208.837 709.322 216.615 693.316 z"/>
<path transform="translate(0,0)" fill="rgb(19,28,58)" d="M 637.824 258.984 C 637.988 259.027 638.161 259.044 638.316 259.113 C 642.221 260.839 648.814 277.353 651.064 281.785 C 634.945 288.958 619.159 296.967 603.298 304.693 C 602.406 304.964 603.049 304.844 601.368 304.337 C 596.878 297.21 593.479 289.421 589.885 281.816 C 605.622 273.659 621.329 265.524 637.824 258.984 z"/>
<path transform="translate(0,0)" fill="rgb(19,28,58)" d="M 529.883 316.817 C 535.807 321.413 540.651 333.144 544.349 339.833 C 529.137 348.582 515.319 359.443 501.309 369.956 C 495.879 362.933 490.5 355.87 485.171 348.77 C 499.823 337.722 514.476 326.8 529.883 316.817 z"/>
<path transform="translate(0,0)" fill="rgb(19,28,58)" d="M 1723.99 1298.58 C 1732.24 1302.46 1740.93 1305.07 1749.06 1309.35 C 1742.21 1325.85 1735.22 1342.28 1728.09 1358.66 C 1720.23 1356.69 1711.06 1350.3 1703.77 1346.43 C 1709.3 1330.22 1717.61 1314.55 1723.99 1298.58 z"/>
<path transform="translate(0,0)" fill="rgb(19,28,58)" d="M 177.591 809.484 C 186.313 812.177 194.779 815.281 203.29 818.56 C 198.27 834.826 195.159 852.781 192.552 869.588 C 183.898 867.271 175.29 864.969 166.499 863.214 C 168.937 845.11 173.463 827.261 177.591 809.484 z"/>
<path transform="translate(0,0)" fill="rgb(19,28,58)" d="M 1523.67 1594.66 C 1528.58 1595.66 1537.83 1609 1541.44 1613.31 C 1528.37 1625.66 1514.85 1637.5 1500.89 1648.83 C 1494.71 1645.35 1487.87 1635.04 1483.18 1629.37 C 1496.97 1618.21 1510.23 1606.26 1523.67 1594.66 z"/>
<path transform="translate(0,0)" fill="rgb(19,28,58)" d="M 1329.7 1730.06 C 1334.85 1736.36 1338.16 1746.29 1341.1 1753.91 C 1325.85 1762.46 1309.71 1769.21 1293.62 1775.99 C 1289.03 1773.64 1284.67 1757.04 1282.75 1751.78 L 1329.7 1730.06 z"/>
<path transform="translate(0,0)" fill="rgb(19,28,58)" d="M 1216.5 1779 L 1218.96 1778.96 C 1223.77 1782.66 1226.22 1796.83 1227.98 1803.01 C 1213.38 1809.93 1196.74 1813.89 1181.26 1818.39 L 1178.61 1818.64 C 1173.91 1814.27 1172.3 1799.83 1170.89 1793.28 C 1185.63 1787.7 1201.42 1783.68 1216.5 1779 z"/>
<path transform="translate(0,0)" fill="rgb(19,28,58)" d="M 272.918 581.482 C 280.55 583.833 288.349 589.732 295.242 593.843 C 287.267 609.552 277.66 625.541 268.109 640.354 C 260.52 638.165 253.381 633.531 245.683 630.997 C 253.386 614.205 263.268 597.236 272.918 581.482 z"/>
<path transform="translate(0,0)" fill="rgb(19,28,58)" d="M 344.29 481.576 C 351.406 486.44 358.167 491.87 365.006 497.115 C 353.461 510.438 342.98 524.235 332.588 538.464 C 325.044 534.29 318.142 528.214 311.303 522.959 C 321.264 508.527 332.615 494.647 344.29 481.576 z"/>
<path transform="translate(0,0)" fill="rgb(19,28,58)" d="M 429.876 392.785 C 436.787 397.749 442.924 404.722 448.557 411.07 C 436.347 423.349 423.542 435.141 411.109 447.206 C 404.448 441.583 398.899 434.324 392.289 428.434 C 404.079 415.927 417.25 404.452 429.876 392.785 z"/>
<path transform="translate(0,0)" fill="rgb(19,28,58)" d="M 1776.26 1064.57 C 1784.59 1065.7 1792.91 1067.45 1801.19 1068.93 C 1800.68 1086.76 1799.31 1104.55 1797.08 1122.24 C 1788.91 1120.19 1780.09 1119.39 1771.75 1118.09 L 1776.26 1064.57 z"/>
<path transform="translate(0,0)" fill="rgb(19,28,58)" d="M 998.194 176.459 L 999.69 176.652 C 1002.41 182.173 1000.22 196.456 1000.1 202.995 C 983.415 203.077 966.735 203.743 950.093 204.993 C 950.031 204.946 949.955 204.912 949.906 204.851 C 946.231 200.284 947.166 184.669 946.929 178.768 C 964.001 177.679 981.093 176.909 998.194 176.459 z"/>
<path transform="translate(0,0)" fill="rgb(19,28,58)" d="M 1071.12 180.796 C 1088.6 182.648 1105.98 185.296 1123.43 187.392 C 1121.72 195.845 1120.77 204.537 1119.54 213.075 C 1102.56 212.485 1084.74 208.669 1067.77 206.556 C 1069.06 197.985 1069.65 189.366 1071.12 180.796 z"/>
<path transform="translate(0,0)" fill="rgb(19,28,58)" d="M 1431.23 1669.67 C 1434.71 1671.33 1442.61 1685.83 1445.77 1690.15 C 1432.39 1700.92 1416.91 1709.36 1402.81 1719.24 L 1402.46 1719.29 C 1397.56 1717.04 1391 1702.14 1388.28 1697.28 C 1402.5 1687.94 1416.82 1678.73 1431.23 1669.67 z"/>
</svg>